<?xml version="1.0" standalone="no"?>
<!DOCTYPE svg PUBLIC "-//W3C//DTD SVG 20010904//EN"
 "http://www.w3.org/TR/2001/REC-SVG-20010904/DTD/svg10.dtd">
<svg version="1.0" xmlns="http://www.w3.org/2000/svg"
 width="700.000000pt" height="700.000000pt" viewBox="0 0 700.000000 700.000000"
 preserveAspectRatio="xMidYMid meet">
<metadata>
Created by potrace 1.14, written by Peter Selinger 2001-2017
</metadata>
<g transform="translate(0.000000,700.000000) scale(0.100000,-0.100000)"
fill="#000000" stroke="none">
<path d="M4207 6344 c-1 -1 -45 -4 -97 -8 -78 -5 -242 -28 -285 -40 -5 -1 -26
-6 -45 -10 -183 -40 -467 -162 -635 -271 -177 -116 -386 -305 -507 -460 -187
-239 -341 -555 -394 -808 -44 -211 -49 -258 -49 -482 0 -214 3 -247 34 -402
62 -301 197 -600 379 -837 l45 -58 -967 -967 -968 -968 158 -157 157 -158 967
967 967 967 84 -62 c223 -166 532 -306 784 -356 181 -36 256 -44 430 -44 132
0 159 2 300 21 405 52 814 252 1129 549 341 322 572 773 632 1235 16 128 22
355 10 440 -3 22 -8 67 -11 100 -16 164 -93 428 -176 604 -165 351 -417 644
-734 856 -189 126 -468 249 -665 292 -36 8 -72 16 -80 17 -19 5 -85 15 -130
21 -66 9 -327 24 -333 19z m233 -448 c106 -13 115 -15 165 -26 28 -7 59 -14
70 -16 47 -9 180 -56 257 -89 771 -339 1158 -1225 887 -2027 -64 -189 -164
-367 -304 -538 -46 -57 -185 -186 -256 -240 -202 -152 -471 -272 -684 -306
-22 -3 -43 -8 -46 -9 -11 -7 -185 -19 -274 -18 -695 2 -1321 452 -1540 1107
-38 114 -70 253 -81 356 -12 115 -7 341 11 430 2 13 7 42 10 63 16 103 96 332
158 447 205 384 534 659 954 799 57 19 88 27 178 46 123 26 369 37 495 21z"/>
</g>
</svg>
